<mxfile host="65bd71144e">
    <diagram id="NkrJbUMcvcRTMUNWyJSr" name="Page-1">
        <mxGraphModel dx="758" dy="607" grid="0" gridSize="10" guides="1" tooltips="1" connect="1" arrows="1" fold="1" page="1" pageScale="1" pageWidth="827" pageHeight="1169" math="0" shadow="0">
            <root>
                <mxCell id="0"/>
                <mxCell id="1" parent="0"/>
                <mxCell id="2" value="" style="shape=table;startSize=0;container=1;collapsible=0;childLayout=tableLayout;" parent="1" vertex="1">
                    <mxGeometry x="60" y="270" width="660" height="370" as="geometry"/>
                </mxCell>
                <mxCell id="3" value="" style="shape=partialRectangle;collapsible=0;dropTarget=0;pointerEvents=0;fillColor=none;top=0;left=0;bottom=0;right=0;points=[[0,0.5],[1,0.5]];portConstraint=eastwest;" parent="2" vertex="1">
                    <mxGeometry width="660" height="33" as="geometry"/>
                </mxCell>
                <mxCell id="4" value="Empleado&amp;nbsp;" style="shape=partialRectangle;html=1;whiteSpace=wrap;connectable=0;overflow=hidden;fillColor=none;top=0;left=0;bottom=0;right=0;pointerEvents=1;" parent="3" vertex="1">
                    <mxGeometry width="220" height="33" as="geometry">
                        <mxRectangle width="220" height="33" as="alternateBounds"/>
                    </mxGeometry>
                </mxCell>
                <mxCell id="5" value="interfaz de usuario" style="shape=partialRectangle;html=1;whiteSpace=wrap;connectable=0;overflow=hidden;fillColor=none;top=0;left=0;bottom=0;right=0;pointerEvents=1;" parent="3" vertex="1">
                    <mxGeometry x="220" width="220" height="33" as="geometry">
                        <mxRectangle width="220" height="33" as="alternateBounds"/>
                    </mxGeometry>
                </mxCell>
                <mxCell id="6" value="logica de negocio" style="shape=partialRectangle;html=1;whiteSpace=wrap;connectable=0;overflow=hidden;fillColor=none;top=0;left=0;bottom=0;right=0;pointerEvents=1;" parent="3" vertex="1">
                    <mxGeometry x="440" width="220" height="33" as="geometry">
                        <mxRectangle width="220" height="33" as="alternateBounds"/>
                    </mxGeometry>
                </mxCell>
                <mxCell id="7" value="" style="shape=partialRectangle;collapsible=0;dropTarget=0;pointerEvents=0;fillColor=none;top=0;left=0;bottom=0;right=0;points=[[0,0.5],[1,0.5]];portConstraint=eastwest;" parent="2" vertex="1">
                    <mxGeometry y="33" width="660" height="337" as="geometry"/>
                </mxCell>
                <mxCell id="8" value="" style="shape=partialRectangle;html=1;whiteSpace=wrap;connectable=0;overflow=hidden;fillColor=none;top=0;left=0;bottom=0;right=0;pointerEvents=1;" parent="7" vertex="1">
                    <mxGeometry width="220" height="337" as="geometry">
                        <mxRectangle width="220" height="337" as="alternateBounds"/>
                    </mxGeometry>
                </mxCell>
                <mxCell id="9" value="" style="shape=partialRectangle;html=1;whiteSpace=wrap;connectable=0;overflow=hidden;fillColor=none;top=0;left=0;bottom=0;right=0;pointerEvents=1;" parent="7" vertex="1">
                    <mxGeometry x="220" width="220" height="337" as="geometry">
                        <mxRectangle width="220" height="337" as="alternateBounds"/>
                    </mxGeometry>
                </mxCell>
                <mxCell id="10" value="" style="shape=partialRectangle;html=1;whiteSpace=wrap;connectable=0;overflow=hidden;fillColor=none;top=0;left=0;bottom=0;right=0;pointerEvents=1;" parent="7" vertex="1">
                    <mxGeometry x="440" width="220" height="337" as="geometry">
                        <mxRectangle width="220" height="337" as="alternateBounds"/>
                    </mxGeometry>
                </mxCell>
                <mxCell id="43" style="edgeStyle=none;html=1;" parent="1" source="11" target="13" edge="1">
                    <mxGeometry relative="1" as="geometry"/>
                </mxCell>
                <mxCell id="11" value="Autenticacion Servicio" style="rounded=1;whiteSpace=wrap;html=1;fillColor=#FFFFFF;fontColor=#000000;" parent="1" vertex="1">
                    <mxGeometry x="335" y="330" width="110" height="40" as="geometry"/>
                </mxCell>
                <mxCell id="12" style="edgeStyle=none;html=1;entryX=1;entryY=0.75;entryDx=0;entryDy=0;" parent="1" source="13" target="26" edge="1">
                    <mxGeometry relative="1" as="geometry">
                        <Array as="points">
                            <mxPoint x="690" y="350"/>
                            <mxPoint x="690" y="528"/>
                        </Array>
                    </mxGeometry>
                </mxCell>
                <mxCell id="13" value="Consulta datos de entrada almacenados&amp;nbsp;" style="rounded=1;whiteSpace=wrap;html=1;fillColor=#FFFFFF;fontColor=#000000;" parent="1" vertex="1">
                    <mxGeometry x="560" y="325" width="110" height="50" as="geometry"/>
                </mxCell>
                <mxCell id="14" style="edgeStyle=none;html=1;" parent="1" source="15" target="11" edge="1">
                    <mxGeometry relative="1" as="geometry"/>
                </mxCell>
                <mxCell id="15" value="&lt;span style=&quot;color: rgb(0 , 0 , 0)&quot;&gt;consulta un&lt;br&gt;&amp;nbsp;servicio&lt;/span&gt;" style="html=1;align=center;verticalAlign=middle;rounded=1;absoluteArcSize=1;arcSize=10;dashed=0;fillColor=#FFFFFF;" parent="1" vertex="1">
                    <mxGeometry x="130" y="330" width="120" height="40" as="geometry"/>
                </mxCell>
                <mxCell id="16" value="" style="ellipse;html=1;fillColor=#FFFFFF;" parent="1" vertex="1">
                    <mxGeometry x="70" y="335" width="30" height="30" as="geometry"/>
                </mxCell>
                <mxCell id="17" value="" style="endArrow=open;html=1;rounded=0;align=center;verticalAlign=top;endFill=0;labelBackgroundColor=none;endSize=6;entryX=0;entryY=0.5;entryDx=0;entryDy=0;" parent="1" source="16" target="15" edge="1">
                    <mxGeometry relative="1" as="geometry">
                        <mxPoint x="140" y="335" as="targetPoint"/>
                    </mxGeometry>
                </mxCell>
                <mxCell id="23" value="" style="ellipse;html=1;shape=endState;fillColor=#000000;strokeColor=#ff0000;" parent="1" vertex="1">
                    <mxGeometry x="130" y="500" width="30" height="30" as="geometry"/>
                </mxCell>
                <mxCell id="24" value="" style="edgeStyle=none;html=1;" parent="1" source="25" target="3" edge="1">
                    <mxGeometry relative="1" as="geometry"/>
                </mxCell>
                <mxCell id="25" value="DAE.6.1.MUESTRA SERVICIOS DEL DIA&amp;nbsp;&amp;nbsp;" style="text;html=1;resizable=0;autosize=1;align=center;verticalAlign=middle;points=[];rounded=0;fillColor=#008a00;fontColor=#ffffff;strokeColor=#005700;" parent="1" vertex="1">
                    <mxGeometry x="265" y="220" width="250" height="20" as="geometry"/>
                </mxCell>
                <mxCell id="26" value="Muestra datos de entrada&amp;nbsp;" style="whiteSpace=wrap;html=1;fillColor=#FFFFFF;fontColor=#000000;rounded=1;" parent="1" vertex="1">
                    <mxGeometry x="315" y="490" width="130" height="50" as="geometry"/>
                </mxCell>
                <mxCell id="40" style="edgeStyle=none;html=1;entryX=1;entryY=0.5;entryDx=0;entryDy=0;exitX=0;exitY=0.5;exitDx=0;exitDy=0;" parent="1" source="26" target="23" edge="1">
                    <mxGeometry relative="1" as="geometry">
                        <mxPoint x="315" y="695" as="sourcePoint"/>
                    </mxGeometry>
                </mxCell>
            </root>
        </mxGraphModel>
    </diagram>
</mxfile>